<mxfile host="app.diagrams.net" modified="2024-06-04T03:51:58.263Z" agent="Mozilla/5.0 (Macintosh; Intel Mac OS X 10_15_7) AppleWebKit/537.36 (KHTML, like Gecko) Chrome/123.0.0.0 Safari/537.36" etag="081C6ddqLnx4HyH-4g4h" version="24.4.13" type="github">
  <diagram name="第 1 页" id="l93Pntk4si56_7tl0GaE">
    <mxGraphModel dx="984" dy="626" grid="1" gridSize="10" guides="1" tooltips="1" connect="1" arrows="1" fold="1" page="1" pageScale="1" pageWidth="827" pageHeight="1169" math="0" shadow="0">
      <root>
        <mxCell id="0" />
        <mxCell id="1" parent="0" />
        <mxCell id="IismxTwG9UXXeM0H7G9D-1" value="克萊恩" style="ellipse;whiteSpace=wrap;html=1;" vertex="1" parent="1">
          <mxGeometry x="340" y="220" width="120" height="80" as="geometry" />
        </mxCell>
        <mxCell id="IismxTwG9UXXeM0H7G9D-3" style="edgeStyle=orthogonalEdgeStyle;rounded=0;orthogonalLoop=1;jettySize=auto;html=1;exitX=0.5;exitY=1;exitDx=0;exitDy=0;entryX=0.5;entryY=0;entryDx=0;entryDy=0;" edge="1" parent="1" source="IismxTwG9UXXeM0H7G9D-2" target="IismxTwG9UXXeM0H7G9D-1">
          <mxGeometry relative="1" as="geometry" />
        </mxCell>
        <mxCell id="IismxTwG9UXXeM0H7G9D-2" value="周明瑞" style="html=1;whiteSpace=wrap;" vertex="1" parent="1">
          <mxGeometry x="345" y="100" width="110" height="50" as="geometry" />
        </mxCell>
      </root>
    </mxGraphModel>
  </diagram>
</mxfile>
